<?xml version="1.0" encoding="UTF-8" standalone="no"?><svg xmlns="http://www.w3.org/2000/svg" xmlns:xlink="http://www.w3.org/1999/xlink" contentStyleType="text/css" height="2088px" preserveAspectRatio="none" style="width:2576px;height:2088px;background:#FFFFFF;" version="1.1" viewBox="0 0 2576 2088" width="2576px" zoomAndPan="magnify"><defs/><g><!--cluster ai_tutor--><g id="cluster_ai_tutor"><rect fill="#F5F5F5" height="2075" rx="2.5" ry="2.5" style="stroke:#000000;stroke-width:1.0;" width="2205" x="170.5" y="7"/><text fill="#000000" font-family="sans-serif" font-size="14" font-style="italic" lengthAdjust="spacing" textLength="58" x="1244" y="23.9659">«System»</text><text fill="#000000" font-family="sans-serif" font-size="14" font-weight="bold" lengthAdjust="spacing" textLength="57" x="1244.5" y="43.0339">AI Tutor</text></g><!--cluster menu_function--><g id="cluster_menu_function"><rect fill="#B0C4DE" height="576" rx="2.5" ry="2.5" style="stroke:#000000;stroke-width:1.0;" width="230" x="202.5" y="80"/><text fill="#000000" font-family="sans-serif" font-size="14" font-style="italic" lengthAdjust="spacing" textLength="80" x="277.5" y="96.9659">«Subsystem»</text><text fill="#000000" font-family="sans-serif" font-size="14" font-weight="bold" lengthAdjust="spacing" textLength="39" x="298" y="116.0339">Menu</text></g><!--cluster generator--><g id="cluster_generator"><rect fill="#B0C4DE" height="497" rx="2.5" ry="2.5" style="stroke:#000000;stroke-width:1.0;" width="310" x="2033.5" y="80"/><text fill="#000000" font-family="sans-serif" font-size="14" font-style="italic" lengthAdjust="spacing" textLength="80" x="2148.5" y="96.9659">«Subsystem»</text><text fill="#000000" font-family="sans-serif" font-size="14" font-weight="bold" lengthAdjust="spacing" textLength="104" x="2136.5" y="116.0339">Text Generator</text></g><!--cluster student_exp--><g id="cluster_student_exp"><rect fill="#B0C4DE" height="360" rx="2.5" ry="2.5" style="stroke:#000000;stroke-width:1.0;" width="1321" x="601.5" y="498"/><text fill="#000000" font-family="sans-serif" font-size="14" font-style="italic" lengthAdjust="spacing" textLength="80" x="1222" y="514.9659">«Subsystem»</text><text fill="#000000" font-family="sans-serif" font-size="14" font-weight="bold" lengthAdjust="spacing" textLength="134" x="1195" y="534.0339">Student Experience</text></g><!--cluster formatter--><g id="cluster_formatter"><rect fill="#B0C4DE" height="745" rx="2.5" ry="2.5" style="stroke:#000000;stroke-width:1.0;" width="960" x="610.5" y="1305"/><text fill="#000000" font-family="sans-serif" font-size="14" font-style="italic" lengthAdjust="spacing" textLength="74" x="1053.5" y="1321.9659">«Subsytem»</text><text fill="#000000" font-family="sans-serif" font-size="14" font-weight="bold" lengthAdjust="spacing" textLength="71" x="1055" y="1341.0339">Formatter</text></g><!--cluster structure_tools--><g id="cluster_structure_tools"><path d="M653,1386 L759,1386 A3.75,3.75 0 0 1 761.5,1388.5 L768.5,1411.0679 L1528,1411.0679 A2.5,2.5 0 0 1 1530.5,1413.5679 L1530.5,1714.5 A2.5,2.5 0 0 1 1528,1717 L653,1717 A2.5,2.5 0 0 1 650.5,1714.5 L650.5,1388.5 A2.5,2.5 0 0 1 653,1386 " fill="#FFFFCC" style="stroke:#008000;stroke-width:1.5;"/><line style="stroke:#008000;stroke-width:1.5;" x1="650.5" x2="768.5" y1="1411.0679" y2="1411.0679"/><text fill="#000000" font-family="sans-serif" font-size="14" font-weight="bold" lengthAdjust="spacing" textLength="105" x="654.5" y="1402.9659">structure_tools</text></g><!--cluster program--><g id="cluster_program"><rect fill="#B0C4DE" height="367" rx="2.5" ry="2.5" style="stroke:#000000;stroke-width:1.0;" width="564.5" x="636" y="898"/><text fill="#000000" font-family="sans-serif" font-size="14" font-style="italic" lengthAdjust="spacing" textLength="80" x="878.25" y="914.9659">«Subsystem»</text><text fill="#000000" font-family="sans-serif" font-size="14" font-weight="bold" lengthAdjust="spacing" textLength="61" x="887.75" y="934.0339">Program</text></g><g id="elem_menu"><ellipse cx="317.3946" cy="161.9969" fill="#F1F1F1" rx="65.3946" ry="16.9969" style="stroke:#181818;stroke-width:0.5;"/><text fill="#000000" font-family="sans-serif" font-size="14" lengthAdjust="spacing" textLength="73" x="277.8946" y="166.7299">Use /menu</text></g><g id="elem_learn"><ellipse cx="317.4695" cy="455.1939" fill="#F1F1F1" rx="86.4695" ry="19.6939" style="stroke:#181818;stroke-width:0.5;"/><text fill="#000000" font-family="sans-serif" font-size="14" lengthAdjust="spacing" textLength="121" x="253.9695" y="459.9269">Use /learn "Topic"</text></g><g id="elem_lesson"><ellipse cx="317.5514" cy="379.8103" fill="#F1F1F1" rx="89.5514" ry="20.3103" style="stroke:#181818;stroke-width:0.5;"/><text fill="#000000" font-family="sans-serif" font-size="14" lengthAdjust="spacing" textLength="129" x="250.0514" y="384.5433">Use /lesson "Topic"</text></g><g id="elem_project"><ellipse cx="317.6201" cy="304.124" fill="#F1F1F1" rx="91.1201" ry="20.624" style="stroke:#181818;stroke-width:0.5;"/><text fill="#000000" font-family="sans-serif" font-size="14" lengthAdjust="spacing" textLength="133" x="248.1201" y="308.857">Use /project "Topic"</text></g><g id="elem_review"><ellipse cx="317.6768" cy="527.0206" fill="#F1F1F1" rx="69.1768" ry="17.0206" style="stroke:#181818;stroke-width:0.5;"/><text fill="#000000" font-family="sans-serif" font-size="14" lengthAdjust="spacing" textLength="78" x="275.6768" y="531.7536">Use /review</text></g><g id="elem_adjust"><ellipse cx="317.6639" cy="596.0114" fill="#F1F1F1" rx="67.6639" ry="17.0114" style="stroke:#181818;stroke-width:0.5;"/><text fill="#000000" font-family="sans-serif" font-size="14" lengthAdjust="spacing" textLength="76" x="276.6639" y="600.7444">Use /adjust</text></g><g id="elem_save"><ellipse cx="317.5876" cy="230.9466" fill="#F1F1F1" rx="58.5876" ry="16.9466" style="stroke:#181818;stroke-width:0.5;"/><text fill="#000000" font-family="sans-serif" font-size="14" lengthAdjust="spacing" textLength="64" x="282.5876" y="235.6795">Use /save</text></g><g id="elem_gen_lp"><ellipse cx="2188.3629" cy="439.0726" fill="#F1F1F1" rx="100.8629" ry="22.5726" style="stroke:#181818;stroke-width:0.5;"/><text fill="#000000" font-family="sans-serif" font-size="14" lengthAdjust="spacing" textLength="157" x="2106.8629" y="443.8056">Generate a Lesson Plan</text></g><g id="elem_gen_lesson"><ellipse cx="2188.5993" cy="362.0199" fill="#F1F1F1" rx="83.0993" ry="19.0199" style="stroke:#181818;stroke-width:0.5;"/><text fill="#000000" font-family="sans-serif" font-size="14" lengthAdjust="spacing" textLength="112" x="2129.5993" y="366.7528">Generate Lesson</text></g><g id="elem_gen_project"><ellipse cx="2188.6162" cy="287.9232" fill="#F1F1F1" rx="87.6162" ry="19.9232" style="stroke:#181818;stroke-width:0.5;"/><text fill="#000000" font-family="sans-serif" font-size="14" lengthAdjust="spacing" textLength="124" x="2123.6162" y="292.6562">Generate a Project</text></g><g id="elem_gen_qa"><ellipse cx="2188.6378" cy="515.2276" fill="#F1F1F1" rx="81.6378" ry="18.7276" style="stroke:#181818;stroke-width:0.5;"/><text fill="#000000" font-family="sans-serif" font-size="14" lengthAdjust="spacing" textLength="108" x="2131.6378" y="519.9605">Generate a Q&amp;A</text></g><g id="elem_gen_page"><ellipse cx="2188.4863" cy="188.9492" fill="#F1F1F1" rx="130.9863" ry="43.4492" style="stroke:#181818;stroke-width:0.5;"/><text fill="#000000" font-family="sans-serif" font-size="14" lengthAdjust="spacing" textLength="134" x="2121.4863" y="173.3132">Generate HTML/CSS</text><text fill="#000000" font-family="sans-serif" font-size="14" lengthAdjust="spacing" textLength="169" x="2103.9863" y="192.3811">code block from previous</text><text fill="#000000" font-family="sans-serif" font-size="14" lengthAdjust="spacing" textLength="62" x="2157.4863" y="211.4491">response</text></g><g id="elem_adjust_exp"><ellipse cx="748.001" cy="638.9322" fill="#F1F1F1" rx="122.501" ry="56.9322" style="stroke:#181818;stroke-width:0.5;"/><text fill="#000000" font-family="sans-serif" font-size="14" lengthAdjust="spacing" textLength="99" x="698.501" y="613.7623">Adjust student</text><text fill="#000000" font-family="sans-serif" font-size="14" lengthAdjust="spacing" textLength="157" x="669.501" y="632.8302">current knowledge and</text><text fill="#000000" font-family="sans-serif" font-size="14" lengthAdjust="spacing" textLength="133" x="681.501" y="651.8981">experience levels in</text><text fill="#000000" font-family="sans-serif" font-size="14" lengthAdjust="spacing" textLength="33" x="731.501" y="670.9661">topic</text></g><g id="elem_get_exp"><ellipse cx="1793.0305" cy="627.9322" fill="#F1F1F1" rx="105.5305" ry="56.9322" style="stroke:#181818;stroke-width:0.5;"/><text fill="#000000" font-family="sans-serif" font-size="14" lengthAdjust="spacing" textLength="133" x="1726.5305" y="602.7623">Get student current</text><text fill="#000000" font-family="sans-serif" font-size="14" lengthAdjust="spacing" textLength="103" x="1741.5305" y="621.8302">knowledge and</text><text fill="#000000" font-family="sans-serif" font-size="14" lengthAdjust="spacing" textLength="133" x="1726.5305" y="640.8981">experience levels in</text><text fill="#000000" font-family="sans-serif" font-size="14" lengthAdjust="spacing" textLength="33" x="1776.5305" y="659.9661">topic</text></g><g id="elem_set_exp"><ellipse cx="1793.0305" cy="776.9322" fill="#F1F1F1" rx="105.5305" ry="56.9322" style="stroke:#181818;stroke-width:0.5;"/><text fill="#000000" font-family="sans-serif" font-size="14" lengthAdjust="spacing" textLength="131" x="1727.5305" y="751.7623">Set student current</text><text fill="#000000" font-family="sans-serif" font-size="14" lengthAdjust="spacing" textLength="103" x="1741.5305" y="770.8302">knowledge and</text><text fill="#000000" font-family="sans-serif" font-size="14" lengthAdjust="spacing" textLength="133" x="1726.5305" y="789.8981">experience levels in</text><text fill="#000000" font-family="sans-serif" font-size="14" lengthAdjust="spacing" textLength="33" x="1776.5305" y="808.9661">topic</text></g><g id="elem_heading"><ellipse cx="748.0993" cy="1988.0199" fill="#F1F1F1" rx="83.0993" ry="19.0199" style="stroke:#181818;stroke-width:0.5;"/><text fill="#000000" font-family="sans-serif" font-size="14" lengthAdjust="spacing" textLength="112" x="689.0993" y="1992.7528">Include Heading</text></g><g id="elem_structure"><ellipse cx="748.1162" cy="1763.9232" fill="#F1F1F1" rx="87.6162" ry="19.9232" style="stroke:#181818;stroke-width:0.5;"/><text fill="#000000" font-family="sans-serif" font-size="14" lengthAdjust="spacing" textLength="124" x="683.1162" y="1768.6562">Use Structure Tool</text></g><g id="elem_overview"><ellipse cx="747.8387" cy="1915.1677" fill="#F1F1F1" rx="83.8387" ry="19.1677" style="stroke:#181818;stroke-width:0.5;"/><text fill="#000000" font-family="sans-serif" font-size="14" lengthAdjust="spacing" textLength="114" x="687.8387" y="1919.9007">Include overview</text></g><g id="elem_intro"><ellipse cx="748.005" cy="1840.101" fill="#F1F1F1" rx="93.505" ry="21.101" style="stroke:#181818;stroke-width:0.5;"/><text fill="#000000" font-family="sans-serif" font-size="14" lengthAdjust="spacing" textLength="139" x="675.505" y="1844.834">Include Introduction</text></g><g id="elem_content"><ellipse cx="1100.8322" cy="1974.1664" fill="#F1F1F1" rx="96.3322" ry="21.6664" style="stroke:#181818;stroke-width:0.5;"/><text fill="#000000" font-family="sans-serif" font-size="14" lengthAdjust="spacing" textLength="146" x="1024.8322" y="1978.8994">Include Main Content</text></g><g id="elem_conclusion"><ellipse cx="1100.9938" cy="1893.1988" fill="#F1F1F1" rx="111.4938" ry="24.6988" style="stroke:#181818;stroke-width:0.5;"/><text fill="#000000" font-family="sans-serif" font-size="14" lengthAdjust="spacing" textLength="182" x="1006.9938" y="1897.9317">Include Conclusion Section</text></g><g id="elem_char_length"><ellipse cx="1100.9529" cy="1803.083" fill="#F1F1F1" rx="97.4529" ry="30.083" style="stroke:#181818;stroke-width:0.5;"/><text fill="#000000" font-family="sans-serif" font-size="14" lengthAdjust="spacing" textLength="116" x="1038.7029" y="1798.282">Limit Line Length</text><text fill="#000000" font-family="sans-serif" font-size="14" lengthAdjust="spacing" textLength="121" x="1036.2029" y="1817.3499">Of All Code Blocks</text></g><g id="elem_tools_html"><ellipse cx="748.151" cy="1657.0018" fill="#F1F1F1" rx="66.151" ry="17.0018" style="stroke:#181818;stroke-width:0.5;"/><text fill="#000000" font-family="sans-serif" font-size="14" lengthAdjust="spacing" textLength="74" x="708.151" y="1661.7348">HTML Tags</text></g><g id="elem_tools_css"><ellipse cx="748.0503" cy="1587.906" fill="#F1F1F1" rx="54.0503" ry="16.906" style="stroke:#181818;stroke-width:0.5;"/><text fill="#000000" font-family="sans-serif" font-size="14" lengthAdjust="spacing" textLength="58" x="716.0503" y="1592.639">CSS tags</text></g><g id="elem_tools_headings"><ellipse cx="748.0876" cy="1518.9466" fill="#F1F1F1" rx="58.5876" ry="16.9466" style="stroke:#181818;stroke-width:0.5;"/><text fill="#000000" font-family="sans-serif" font-size="14" lengthAdjust="spacing" textLength="64" x="713.0876" y="1523.6795">Headings</text></g><g id="elem_tools_bp"><ellipse cx="747.9266" cy="1450.0853" fill="#F1F1F1" rx="73.4266" ry="17.0853" style="stroke:#181818;stroke-width:0.5;"/><text fill="#000000" font-family="sans-serif" font-size="14" lengthAdjust="spacing" textLength="84" x="702.9266" y="1454.8183">Bullet Points</text></g><g id="elem_tools_nl"><ellipse cx="1100.7761" cy="1666.1552" fill="#F1F1F1" rx="81.2761" ry="18.6552" style="stroke:#181818;stroke-width:0.5;"/><text fill="#000000" font-family="sans-serif" font-size="14" lengthAdjust="spacing" textLength="107" x="1044.2761" y="1670.8882">Numbered Lists</text></g><g id="elem_tools_markdown"><ellipse cx="1100.8656" cy="1592.8731" fill="#F1F1F1" rx="82.3656" ry="18.8731" style="stroke:#181818;stroke-width:0.5;"/><text fill="#000000" font-family="sans-serif" font-size="14" lengthAdjust="spacing" textLength="110" x="1042.8656" y="1597.6061">Markdown Tools</text></g><g id="elem_tools_cb"><ellipse cx="1101.001" cy="1519.8002" fill="#F1F1F1" rx="82.001" ry="18.8002" style="stroke:#181818;stroke-width:0.5;"/><text fill="#000000" font-family="sans-serif" font-size="14" lengthAdjust="spacing" textLength="109" x="1043.501" y="1524.5332">Use Code Blocks</text></g><g id="elem_tools_latex"><ellipse cx="1100.9203" cy="1449.0161" fill="#F1F1F1" rx="68.4203" ry="17.0161" style="stroke:#181818;stroke-width:0.5;"/><text fill="#000000" font-family="sans-serif" font-size="14" lengthAdjust="spacing" textLength="77" x="1059.4203" y="1453.749">LaTex Tools</text></g><g id="elem_hypertext"><ellipse cx="1390.2019" cy="1655.1007" fill="#F1F1F1" rx="116.7019" ry="30.1007" style="stroke:#181818;stroke-width:0.5;"/><text fill="#000000" font-family="sans-serif" font-size="14" lengthAdjust="spacing" textLength="140" x="1315.2019" y="1650.2997">Links and references</text><text fill="#000000" font-family="sans-serif" font-size="14" lengthAdjust="spacing" textLength="148" x="1311.2019" y="1669.3677">in Markdown notation</text></g><g id="elem_images"><ellipse cx="1390.1163" cy="1559.9661" fill="#F1F1F1" rx="104.1163" ry="29.9661" style="stroke:#181818;stroke-width:0.5;"/><text fill="#000000" font-family="sans-serif" font-size="14" lengthAdjust="spacing" textLength="67" x="1356.6163" y="1553.8641">Images in</text><text fill="#000000" font-family="sans-serif" font-size="14" lengthAdjust="spacing" textLength="131" x="1324.6163" y="1572.932">Markdown notation</text></g><g id="elem_videos"><ellipse cx="1390.1163" cy="1464.9661" fill="#F1F1F1" rx="104.1163" ry="29.9661" style="stroke:#181818;stroke-width:0.5;"/><text fill="#000000" font-family="sans-serif" font-size="14" lengthAdjust="spacing" textLength="61" x="1359.6163" y="1458.8641">Videos in</text><text fill="#000000" font-family="sans-serif" font-size="14" lengthAdjust="spacing" textLength="131" x="1324.6163" y="1477.932">Markdown notation</text></g><g id="elem_desc"><ellipse cx="748.0009" cy="1002.0002" fill="#F1F1F1" rx="88.0009" ry="20.0002" style="stroke:#181818;stroke-width:0.5;"/><text fill="#000000" font-family="sans-serif" font-size="14" lengthAdjust="spacing" textLength="125" x="682.5009" y="1006.7331">Create Description</text></g><g id="elem_follow_desc"><ellipse cx="1101.1088" cy="1012.147" fill="#F1F1F1" rx="75.6088" ry="30.147" style="stroke:#181818;stroke-width:0.5;"/><text fill="#000000" font-family="sans-serif" font-size="14" lengthAdjust="spacing" textLength="90" x="1053.1088" y="1007.346">Strictly follow</text><text fill="#000000" font-family="sans-serif" font-size="14" lengthAdjust="spacing" textLength="77" x="1061.6088" y="1026.414">Description</text></g><g id="elem_safeguards"><ellipse cx="748.0009" cy="1077.0002" fill="#F1F1F1" rx="88.0009" ry="20.0002" style="stroke:#181818;stroke-width:0.5;"/><text fill="#000000" font-family="sans-serif" font-size="14" lengthAdjust="spacing" textLength="125" x="682.5009" y="1081.7331">Create Safeguards</text></g><g id="elem_follow_safeguards"><ellipse cx="1101.1088" cy="1107.147" fill="#F1F1F1" rx="75.6088" ry="30.147" style="stroke:#181818;stroke-width:0.5;"/><text fill="#000000" font-family="sans-serif" font-size="14" lengthAdjust="spacing" textLength="90" x="1053.1088" y="1102.346">Strictly follow</text><text fill="#000000" font-family="sans-serif" font-size="14" lengthAdjust="spacing" textLength="77" x="1061.6088" y="1121.414">Safeguards</text></g><g id="elem_function"><ellipse cx="748.0837" cy="1151.8167" fill="#F1F1F1" rx="84.5837" ry="19.3167" style="stroke:#181818;stroke-width:0.5;"/><text fill="#000000" font-family="sans-serif" font-size="14" lengthAdjust="spacing" textLength="116" x="687.0837" y="1156.5497">Perform Function</text></g><g id="elem_error"><ellipse cx="748.1639" cy="1224.0114" fill="#F1F1F1" rx="67.6639" ry="17.0114" style="stroke:#181818;stroke-width:0.5;"/><text fill="#000000" font-family="sans-serif" font-size="14" lengthAdjust="spacing" textLength="76" x="707.1639" y="1228.7444">Catch Error</text></g><!--entity user--><g id="elem_user"><ellipse cx="33" cy="634.0679" fill="#F1F1F1" rx="16" ry="16" style="stroke:#181818;stroke-width:1.5;"/><path d="M33,654.0679 C37,654.0679 40,654.0679 44,650.0679 C52,650.0679 60,658.0679 60,666.0679 L60,670.0679 C60,674.0679 56,678.0679 52,678.0679 L14,678.0679 C10,678.0679 6,674.0679 6,670.0679 L6,666.0679 C6,658.0679 14,650.0679 22,650.0679 C26,654.0679 29,654.0679 33,654.0679 " fill="#F1F1F1" style="stroke:#181818;stroke-width:1.5;"/><text fill="#000000" font-family="sans-serif" font-size="14" lengthAdjust="spacing" textLength="53" x="6.5" y="694.5339">Student</text><text fill="#000000" font-family="sans-serif" font-size="14" font-style="italic" lengthAdjust="spacing" textLength="42" x="12" y="612.4659">«User»</text></g><!--entity bot--><g id="elem_bot"><ellipse cx="2527" cy="1017.0679" fill="#F1F1F1" rx="16" ry="16" style="stroke:#181818;stroke-width:1.5;"/><path d="M2527,1037.0679 C2531,1037.0679 2534,1037.0679 2538,1033.0679 C2546,1033.0679 2554,1041.0679 2554,1049.0679 L2554,1053.0679 C2554,1057.0679 2550,1061.0679 2546,1061.0679 L2508,1061.0679 C2504,1061.0679 2500,1057.0679 2500,1053.0679 L2500,1049.0679 C2500,1041.0679 2508,1033.0679 2516,1033.0679 C2520,1037.0679 2523,1037.0679 2527,1037.0679 " fill="#F1F1F1" style="stroke:#181818;stroke-width:1.5;"/><text fill="#000000" font-family="sans-serif" font-size="14" lengthAdjust="spacing" textLength="54" x="2500" y="1077.5339">AI Tutor</text><text fill="#000000" font-family="sans-serif" font-size="14" font-style="italic" lengthAdjust="spacing" textLength="85" x="2484.5" y="995.4659">«Application»</text></g><!--link desc to follow_desc--><g id="link_desc_follow_desc"><path d="M827.93,1010.68 C851.26,1012.87 876.88,1014.91 900.5,1016 C926.69,1017.21 933.28,1016.37 959.5,1016 C978.76,1015.73 999.51,1015.24 1018.99,1014.7 " fill="none" id="desc-to-follow_desc" style="stroke:#0000FF;stroke-width:1.0;stroke-dasharray:7.0,7.0;"/><polygon fill="#0000FF" points="1023.76,1014.57,1014.6494,1010.8287,1018.762,1014.7128,1014.8779,1018.8254,1023.76,1014.57" style="stroke:#0000FF;stroke-width:1.0;"/><text fill="#0000FF" font-family="sans-serif" font-size="13" lengthAdjust="spacing" textLength="57" x="901.5" y="1011.897">«include»</text></g><!--link safeguards to follow_safeguards--><g id="link_safeguards_follow_safeguards"><path d="M830.85,1084 C887.9,1088.87 963.63,1095.34 1020.23,1100.18 " fill="none" id="safeguards-to-follow_safeguards" style="stroke:#0000FF;stroke-width:1.0;stroke-dasharray:7.0,7.0;"/><polygon fill="#0000FF" points="1025.17,1100.6,1016.5468,1095.8418,1020.1885,1100.1706,1015.8597,1103.8122,1025.17,1100.6" style="stroke:#0000FF;stroke-width:1.0;"/><text fill="#0000FF" font-family="sans-serif" font-size="13" lengthAdjust="spacing" textLength="57" x="901.5" y="1086.897">«include»</text></g><!--link user to menu_function--><g id="link_user_menu_function"><path d="M61.86,648 C79.4,648 103.7288,648 130.4427,648 C143.7996,648 157.7529,648 171.7519,648 C178.7515,648 185.7625,648 192.7161,648 C194.4545,648 196.1894,648 197.9195,648 C198.7846,648 199.6485,648 200.5112,648 C200.9425,648 201.3735,648 201.8041,648 " fill="none" id="user-menu_function" style="stroke:#000000;stroke-width:1.0;"/></g><!--link set_exp to bot--><g id="link_set_exp_bot"><path d="M1800.29,834.36 C1814.05,927.66 1856.01,1102 1977.5,1102 C1977.5,1102 1977.5,1102 2423.5,1102 C2446.01,1102 2467.15,1090.28 2484.32,1076.37 " fill="none" id="set_exp-bot" style="stroke:#000000;stroke-width:1.0;"/></g><!--link get_exp to bot--><g id="link_get_exp_bot"><path d="M1884.1,657.2 C1905.02,668.09 1925.06,682.68 1938.5,702 C1980.54,762.44 1903.88,1031 1977.5,1031 C1977.5,1031 1977.5,1031 2423.5,1031 C2443.43,1031 2465.54,1031 2484.11,1031 " fill="none" id="get_exp-bot" style="stroke:#000000;stroke-width:1.0;"/></g><!--link generator to bot--><g id="link_generator_bot"><path d="M2195.3813,577.0726 C2195.5306,577.2775 2195.6826,577.4862 2195.8372,577.6985 C2197.0741,579.3967 2198.4809,581.3281 2200.0475,583.479 C2206.3141,592.0827 2215.1388,604.1986 2225.8838,618.9509 C2247.3737,648.4556 2276.545,688.5062 2308.295,732.0975 C2371.795,819.28 2445.61,920.625 2488.92,980.09 " fill="none" id="generator-bot" style="stroke:#000000;stroke-width:1.0;"/></g><!--reverse link adjust_exp to get_exp--><g id="link_adjust_exp_get_exp"><path d="M891.93,636.04 C955.62,634.96 1031.56,634 1100,634 C1100,634 1100,634 1626.5,634 C1646.19,634 1667.2,633.57 1687.4,632.94 " fill="none" id="adjust_exp-backto-get_exp" style="stroke:#800080;stroke-width:1.0;"/><polygon fill="none" points="892.46,643.03,872.34,636.39,892.21,629.04,892.46,643.03" style="stroke:#800080;stroke-width:1.0;"/></g><!--reverse link adjust_exp to set_exp--><g id="link_adjust_exp_set_exp"><path d="M862.74,682.53 C930.58,704.68 1019.01,727 1100,727 C1100,727 1100,727 1626.5,727 C1654.26,727 1683.57,733.53 1709.68,741.87 " fill="none" id="adjust_exp-backto-set_exp" style="stroke:#800080;stroke-width:1.0;"/><polygon fill="none" points="860.54,689.17,843.82,676.17,865,675.9,860.54,689.17" style="stroke:#800080;stroke-width:1.0;"/></g><!--link structure_tools to structure--><g id="link_structure_tools_structure"><path d="M748,1717.1224 C748,1717.1667 748,1717.211 748,1717.2552 C748,1717.6093 748,1717.9633 748,1718.3173 C748,1721.1497 748,1723.9819 748,1726.8138 C748,1732.4775 748,1738.14 748,1743.8 " fill="none" id="structure_tools-structure" style="stroke:#000000;stroke-width:1.0;stroke-dasharray:7.0,7.0;"/></g><!--link formatter to generator--><g id="link_formatter_generator"><path d="M1570.9912,1720.4902 C1571.9953,1719.2202 1573.005,1717.9443 1574.0207,1716.6627 C1578.0834,1711.536 1582.2403,1706.3162 1586.5,1701 C1763.2,1480.475 1912.4925,1200.1575 2018.0838,973.6463 C2070.8794,860.3906 2112.7497,760.5866 2141.658,688.4339 C2156.1121,652.3576 2167.3257,623.1941 2175.0443,602.7185 C2178.9035,592.4806 2181.889,584.4148 2183.9689,578.7427 C2184.0989,578.3882 2184.2254,578.0431 2184.3483,577.7073 " fill="none" id="formatter-generator" style="stroke:#FF0000;stroke-width:1.0;stroke-dasharray:7.0,7.0;"/></g><!--link student_exp to generator--><g id="link_student_exp_generator"><path d="M1928.0242,535 C1931.3231,535 1934.6352,535 1937.9604,535 C1951.2614,535 1964.7734,535 1978.5,535 C1997.07,535 1999.46,545.6 2017.5,550 C2022.0444,551.1081 2026.673,552.1518 2031.3584,553.1349 C2031.9441,553.2577 2032.5307,553.3797 2033.1181,553.5007 " fill="none" id="student_exp-generator" style="stroke:#FF0000;stroke-width:1.0;stroke-dasharray:7.0,7.0;"/></g><!--link program to generator--><g id="link_program_generator"><path d="M1202.2709,915 C1203.089,915 1203.9137,915 1204.745,915 C1206.4077,915 1208.0967,915 1209.8125,915 C1319.625,915 1539.25,915 1978.5,915 C2067.625,915 2119.7575,829.8475 2149.6663,744.0288 C2164.6206,701.1194 2174.0191,658.0434 2179.7077,625.3617 C2182.552,609.0209 2184.4688,595.2786 2185.6889,585.4549 C2185.994,582.999 2186.2555,580.788 2186.477,578.8425 C2186.5324,578.3562 2186.5853,577.8864 2186.6357,577.4336 " fill="none" id="program-generator" style="stroke:#FF0000;stroke-width:1.0;stroke-dasharray:7.0,7.0;"/></g><!--link menu_function to program--><g id="link_menu_function_program"><path d="M328.6013,656.273 C328.7601,656.4023 328.9206,656.5331 329.0829,656.6652 C329.4074,656.9294 329.7389,657.1992 330.0772,657.4745 C331.4305,658.5756 332.8935,659.7643 334.4613,661.0361 C337.597,663.5798 341.1523,666.4559 345.0889,669.6288 C360.8353,682.32 382.6831,699.7575 408.1863,719.645 C459.1925,759.42 524.82,808.995 585.5,850 C602.5725,861.5375 621.0231,873.2706 639.1395,884.4044 C643.6686,887.1878 648.1768,889.9338 652.6374,892.6299 C654.8677,893.9779 657.0861,895.3135 659.2892,896.6351 C659.84,896.9654 660.3898,897.295 660.9386,897.6236 " fill="none" id="menu_function-program" style="stroke:#FF0000;stroke-width:1.0;stroke-dasharray:7.0,7.0;"/></g><!--link student_exp to program--><g id="link_student_exp_program"><path d="M601.4258,539.5846 C600.8926,539.8017 600.3627,540.0238 599.8361,540.2507 C597.7298,541.1585 595.6776,542.145 593.6865,543.2151 C589.7044,545.3551 585.967,547.829 582.5315,550.6742 C575.6606,556.3645 569.9975,563.54 566,572.5 C542.46,625.26 542.46,779.74 566,832.5 C575.355,853.465 590.7188,870.965 608.6644,885.4548 C613.1508,889.0773 617.7986,892.5116 622.5542,895.7649 C624.9319,897.3916 627.3367,898.973 629.7617,900.51 C630.9742,901.2785 632.1918,902.0359 633.4136,902.7824 C634.0245,903.1556 634.6365,903.5261 635.2494,903.8938 " fill="none" id="student_exp-program" style="stroke:#FF0000;stroke-width:1.0;stroke-dasharray:7.0,7.0;"/></g><!--link program to formatter--><g id="link_program_formatter"><path d="M635.6603,939.2287 C635.3514,939.2755 635.0427,939.3232 634.7343,939.3717 C624.8657,940.9236 615.2848,943.3274 606.4478,946.8483 C588.7738,953.89 574.075,965.4 566,983.5 C542.86,1035.35 542.86,1953.65 566,2005.5 C582.15,2041.7 624.795,2051.54 664.7475,2051.9938 C674.7356,2052.1072 684.5555,2051.634 693.751,2050.8394 C696.0499,2050.6407 698.3097,2050.422 700.5234,2050.1873 C701.0768,2050.1286 701.6274,2050.0689 702.1749,2050.0083 " fill="none" id="program-formatter" style="stroke:#FF0000;stroke-width:1.0;stroke-dasharray:7.0,7.0;"/></g><!--link learn to gen_lp--><g id="link_learn_gen_lp"><path d="M385.97,442.77 C406.93,437.18 429.5,429.21 448.5,418 C485.17,396.36 473.42,350 516,350 C516,350 516,350 1978.5,350 C2005.99,350 1994.25,383.34 2017.5,398 C2039.73,412.02 2066.36,421.24 2091.88,427.31 " fill="none" id="learn-to-gen_lp" style="stroke:#0000FF;stroke-width:1.0;stroke-dasharray:7.0,7.0;"/><polygon fill="#0000FF" points="2096.52,428.38,2088.6348,422.4789,2091.6452,427.2682,2086.8559,430.2786,2096.52,428.38" style="stroke:#0000FF;stroke-width:1.0;"/><text fill="#0000FF" font-family="sans-serif" font-size="13" lengthAdjust="spacing" textLength="57" x="1361.5" y="345.897">«include»</text></g><!--link lesson to gen_lesson--><g id="link_lesson_gen_lesson"><path d="M389.27,367.42 C409.48,361.74 430.8,353.6 448.5,342 C487.69,316.31 469.14,261 516,261 C516,261 516,261 1978.5,261 C2011.81,261 1990.37,305.68 2017.5,325 C2041.73,342.26 2072.48,351.71 2101.15,356.82 " fill="none" id="lesson-to-gen_lesson" style="stroke:#0000FF;stroke-width:1.0;stroke-dasharray:7.0,7.0;"/><polygon fill="#0000FF" points="2105.74,357.59,2097.5277,352.1533,2100.8092,356.7611,2096.2014,360.0425,2105.74,357.59" style="stroke:#0000FF;stroke-width:1.0;"/><text fill="#0000FF" font-family="sans-serif" font-size="13" lengthAdjust="spacing" textLength="57" x="1361.5" y="256.897">«include»</text></g><!--link project to gen_project--><g id="link_project_gen_project"><path d="M392.07,291.88 C411.79,286.1 432.15,277.56 448.5,265 C453.88,260.87 452.69,257.62 456.5,252 C481.36,215.32 471.69,172 516,172 C516,172 516,172 1978.5,172 C2017.26,172 1986.97,226.13 2017.5,250 C2039.87,267.49 2068.7,277.26 2096.25,282.62 " fill="none" id="project-to-gen_project" style="stroke:#0000FF;stroke-width:1.0;stroke-dasharray:7.0,7.0;"/><polygon fill="#0000FF" points="2100.98,283.49,2092.8478,277.9341,2096.0618,282.5893,2091.4067,285.8033,2100.98,283.49" style="stroke:#0000FF;stroke-width:1.0;"/><text fill="#0000FF" font-family="sans-serif" font-size="13" lengthAdjust="spacing" textLength="57" x="1361.5" y="167.897">«include»</text></g><!--link review to gen_qa--><g id="link_review_gen_qa"><path d="M374.69,517.07 C398.28,511.59 425.51,503.51 448.5,492 C482.6,474.92 477.86,439 516,439 C516,439 516,439 1978.5,439 C2003.33,439 1995.75,467.02 2017.5,479 C2044.15,493.67 2076.17,502.37 2105.21,507.53 " fill="none" id="review-to-gen_qa" style="stroke:#0000FF;stroke-width:1.0;stroke-dasharray:7.0,7.0;"/><polygon fill="#0000FF" points="2109.87,508.32,2101.6731,502.8601,2104.9415,507.4772,2100.3245,510.7457,2109.87,508.32" style="stroke:#0000FF;stroke-width:1.0;"/><text fill="#0000FF" font-family="sans-serif" font-size="13" lengthAdjust="spacing" textLength="57" x="1361.5" y="434.897">«include»</text></g><!--link save to gen_page--><g id="link_save_gen_page"><path d="M373.54,225.66 C398.41,221 426.97,212.29 448.5,196 C495.15,160.71 457.5,83 516,83 C516,83 516,83 1978.5,83 C2036.36,83 2094.44,115.71 2134.63,144.79 " fill="none" id="save-to-gen_page" style="stroke:#0000FF;stroke-width:1.0;stroke-dasharray:7.0,7.0;"/><polygon fill="#0000FF" points="2138.22,147.43,2133.3318,138.8799,2134.1893,144.4713,2128.5979,145.3289,2138.22,147.43" style="stroke:#0000FF;stroke-width:1.0;"/><text fill="#0000FF" font-family="sans-serif" font-size="13" lengthAdjust="spacing" textLength="57" x="1361.5" y="78.897">«include»</text></g><!--link adjust to adjust_exp--><g id="link_adjust_adjust_exp"><path d="M380.81,602.25 C443.7,608.56 542.57,618.49 621.74,626.43 " fill="none" id="adjust-to-adjust_exp" style="stroke:#0000FF;stroke-width:1.0;stroke-dasharray:7.0,7.0;"/><polygon fill="#0000FF" points="626.38,626.9,617.8241,622.0219,621.405,626.4011,617.0258,629.982,626.38,626.9" style="stroke:#0000FF;stroke-width:1.0;"/><text fill="#0000FF" font-family="sans-serif" font-size="13" lengthAdjust="spacing" textLength="57" x="488.5" y="609.897">«include»</text></g><!--reverse link review to adjust_exp--><g id="link_review_adjust_exp"><path d="M371.92,540.96 C438.85,558.46 555.11,588.84 640.5,611.16 " fill="none" id="review-backto-adjust_exp" style="stroke:#008080;stroke-width:1.0;stroke-dasharray:7.0,7.0;"/><polygon fill="#008080" points="367.46,539.8,375.1448,545.9599,372.2952,541.0732,377.1819,538.2236,367.46,539.8" style="stroke:#008080;stroke-width:1.0;"/><text fill="#008080" font-family="sans-serif" font-size="13" lengthAdjust="spacing" textLength="56" x="489" y="567.897">«extend»</text></g><!--SRC=[lLRRRXit47tdLqnKeBQ0IdctNG5oqQO14i2Dr6U1tXt9cr3abkJQ2Th-UuQtNPAI2_SX8I1WDNFcS3WN3bzriX53Yy2xdHsiqhj6oNrtMFR3KJ0cS6_1Aj3TuS52ssbiRASaO-m2VYxNkY5hKmdPrSOIkxHNS7Fpfq6zMW4tCD0Nkrg_XQtRqkdMVI-wXZlo0BbNzjmkco_6uh7UnRd5vK4Wp1BfZ4W3EF2byy7VZ06j2tYFSW3LkosD5sKiJkSPXdkJaHn9lDiFqWU1c22k2xZb1jsn5Wrzc55nIMU6ryvi3jaYgailh802kPOmswg-QsRp2FJ2KwGnAeS6f1FMq5whZtIo2UkWKLXZDJvs-3GlFOt22ihRZuEn5JGAAwZXZtXoVYzaMGZNRTkvk79H1V9VbbBs1YLgxhAufr-ZaGf67k2HwquD1b0WHTMUP7EBd-raUoQlXv5tokbbDA3MW7SXsdU2on0-CjY9Vdu67A3p_AGUNAScOx-BkIWCJXEKMVpnuteEzHP_yGbC0NJn0y_43vY3PonFnSZw-_RzkzU_R3Q5jb5qDTmBrNo2lLP7w5qjKAWBa4RJKm_XA9obj8MinIk0GlE8mcVEeFM9imy8pQ2rq-Bd7dM7ia4G7gZsGQ-a9NsTqqJwwsXs9gycW7R4dMKs1ISKgrUUX6NjTOcWZ4bq-9DKJm9R2YwNRO6eZsAWamN0kawimbMcxHcttk3eK_AZq7z3dynpFcs-hqzZMVscz95RY-4os8T_hghKOFl14XTrIeFQSlfwubz-WZ3h72JT54lFzIeDmNsYZEClR4JzUT3ywERWFVeD1zcYDbIABJoe9zgcZv3EX5i9sv8uwWEjky_EZBOFAFpyCmzTVp974znFMJY5Ee2RhwMAkK4BYyMYd5mEVAiijLEEJGa6R-3cx-6C95sKIP8SUoj9imZDzun_Vk2M_h7fTfWQkS9aRNhppyAjiJz-49t4gxj1zmAlpm7DMI3BYwVSp5WzD7RGkBDAKK4kQL0bqPnbfoNJnUQ_JXkLYrNyOcDnmP9MDdCWklS1s-iimijX2SKDbg7OM9KibLvO1N5cKBvS23MPPQXyD-BIonoOuQezfxwfVFGPfmYK0vZ59qrqEAxLE5K3Qs2w5GDUMpBtN-2UYh6dLYkM7ZndUPBg9JpzD85hdb7r4fxi-LJpq7H- -Rco1rF6Kmxp5_1a6JZjCfOUQ-39i-RvFoUzSILoOhj5BeAj-_Asz0TbIwPV0G00]--></g></svg>